<?xml version="1.0" standalone="no"?>
<!DOCTYPE svg PUBLIC "-//W3C//DTD SVG 20010904//EN"
 "http://www.w3.org/TR/2001/REC-SVG-20010904/DTD/svg10.dtd">
<svg version="1.0" xmlns="http://www.w3.org/2000/svg"
 width="512.000000pt" height="512.000000pt" viewBox="0 0 512.000000 512.000000"
 preserveAspectRatio="xMidYMid meet">
<metadata>
Created by potrace 1.14, written by Peter Selinger 2001-2017
</metadata>
<g transform="translate(0.000000,512.000000) scale(0.100000,-0.100000)"
fill="#000000" stroke="none">
<path d="M0 2560 l0 -2560 2560 0 2560 0 0 2560 0 2560 -2560 0 -2560 0 0
-2560z m2712 1708 l-5 -141 109 7 c60 3 130 9 157 13 l47 6 0 -149 0 -149 318
21 c174 12 320 19 325 17 4 -2 7 -109 7 -236 0 -128 3 -268 6 -312 l7 -80 166
6 c91 4 168 5 170 3 2 -2 8 -194 12 -426 4 -233 11 -541 15 -685 l7 -263 -183
0 -183 0 6 -361 5 -360 -146 6 c-81 3 -162 8 -179 11 l-33 5 0 -186 0 -185
-32 0 c-18 0 -305 18 -638 39 -333 22 -764 50 -958 62 l-354 23 6 70 c3 39 8
114 12 168 l6 96 -73 6 c-41 3 -172 11 -292 17 l-217 12 5 46 c8 67 45 533 45
564 l0 27 -135 0 c-124 0 -135 1 -135 18 0 10 4 65 10 123 5 57 28 311 50 564
23 253 43 465 45 471 2 8 46 13 128 15 69 2 128 6 131 9 2 3 15 129 27 280 12
151 23 276 24 277 1 2 59 7 129 12 70 5 129 11 131 13 3 3 10 63 15 133 6 71
13 132 16 135 3 3 125 15 270 26 146 12 267 23 269 25 2 3 7 65 12 139 l8 135
135 13 c492 46 650 60 691 61 l46 1 -5 -142z"/>
</g>
</svg>
